<?xml version="1.0" encoding="UTF-8" standalone="no"?>
<!-- Created with Inkscape (http://www.inkscape.org/) -->
<svg
   xmlns:dc="http://purl.org/dc/elements/1.1/"
   xmlns:cc="http://creativecommons.org/ns#"
   xmlns:rdf="http://www.w3.org/1999/02/22-rdf-syntax-ns#"
   xmlns:svg="http://www.w3.org/2000/svg"
   xmlns="http://www.w3.org/2000/svg"
   xmlns:sodipodi="http://sodipodi.sourceforge.net/DTD/sodipodi-0.dtd"
   xmlns:inkscape="http://www.inkscape.org/namespaces/inkscape"
   id="svg2178"
   sodipodi:version="0.32"
   inkscape:version="0.46"
   width="1373"
   height="1804"
   version="1.0"
   sodipodi:docbase="C:\Users\svo\House"
   sodipodi:docname="mifi.svg"
   inkscape:output_extension="org.inkscape.output.svg.inkscape">
  <metadata
     id="metadata2183">
    <rdf:RDF>
      <cc:Work
         rdf:about="">
        <dc:format>image/svg+xml</dc:format>
        <dc:type
           rdf:resource="http://purl.org/dc/dcmitype/StillImage" />
      </cc:Work>
    </rdf:RDF>
  </metadata>
  <defs
     id="defs2181">
    <inkscape:perspective
       sodipodi:type="inkscape:persp3d"
       inkscape:vp_x="0 : 902 : 1"
       inkscape:vp_y="0 : 1000 : 0"
       inkscape:vp_z="1373 : 902 : 1"
       inkscape:persp3d-origin="686.5 : 601.33333 : 1"
       id="perspective65" />
    <pattern
       patternUnits="userSpaceOnUse"
       width="58.942238"
       height="57.399741"
       patternTransform="translate(473.36243,1993.3994)"
       id="pattern3199">
      <g
         id="g3188"
         transform="translate(-473.36243,-1993.3994)">
        <g
           id="g3194">
          <path
             style="color:#000000;fill:none;fill-opacity:1;fill-rule:evenodd;stroke:#000000;stroke-width:3;stroke-linecap:butt;stroke-linejoin:bevel;marker:none;marker-start:none;marker-mid:none;marker-end:none;stroke-miterlimit:4;stroke-dashoffset:19.2;stroke-opacity:1;visibility:visible;display:inline;overflow:visible;enable-background:accumulate"
             d="M 474.86243,1994.8994 L 502.96376,1994.8994 L 502.96376,2022.3018 L 474.86243,2022.3018 L 474.86243,1994.8994 z "
             id="rect3182" />
          <rect
             style="opacity:1;color:#000000;fill:none;fill-opacity:1;fill-rule:evenodd;stroke:#000000;stroke-width:3;stroke-linecap:butt;stroke-linejoin:bevel;marker:none;marker-start:none;marker-mid:none;marker-end:none;stroke-miterlimit:4;stroke-dasharray:none;stroke-dashoffset:19.2;stroke-opacity:1;visibility:visible;display:inline;overflow:visible;enable-background:accumulate"
             id="rect3184"
             width="28.10133"
             height="27.402412"
             x="502.70334"
             y="1994.8994" />
          <rect
             y="2021.8967"
             x="487.51736"
             height="27.402412"
             width="28.10133"
             id="rect3186"
             style="opacity:1;color:#000000;fill:none;fill-opacity:1;fill-rule:evenodd;stroke:#000000;stroke-width:3;stroke-linecap:butt;stroke-linejoin:bevel;marker:none;marker-start:none;marker-mid:none;marker-end:none;stroke-miterlimit:4;stroke-dasharray:none;stroke-dashoffset:19.2;stroke-opacity:1;visibility:visible;display:inline;overflow:visible;enable-background:accumulate" />
        </g>
      </g>
    </pattern>
    <pattern
       patternUnits="userSpaceOnUse"
       width="69.64949"
       height="60.3692"
       patternTransform="translate(631.24833,1983.0442)"
       id="pattern3224">
      <g
         id="g3218"
         transform="translate(-631.24833,-1983.0442)">
        <path
           style="opacity:1;color:#000000;fill:none;fill-opacity:1;fill-rule:evenodd;stroke:#000000;stroke-width:3;stroke-linecap:butt;stroke-linejoin:bevel;marker:none;marker-start:none;marker-mid:none;marker-end:none;stroke-miterlimit:4;stroke-dasharray:none;stroke-dashoffset:19.2;stroke-opacity:1;visibility:visible;display:inline;overflow:visible;enable-background:accumulate"
           d="M 632.74833,2015.7598 L 671.5569,1984.5442"
           id="path3210" />
        <path
           style="opacity:1;color:#000000;fill:none;fill-opacity:1;fill-rule:evenodd;stroke:#000000;stroke-width:3;stroke-linecap:butt;stroke-linejoin:bevel;marker:none;marker-start:none;marker-mid:none;marker-end:none;stroke-miterlimit:4;stroke-dasharray:none;stroke-dashoffset:19.2;stroke-opacity:1;visibility:visible;display:inline;overflow:visible;enable-background:accumulate"
           d="M 659.74559,2030.9457 L 699.39782,2000.5738"
           id="path3212" />
        <path
           style="opacity:1;color:#000000;fill:none;fill-opacity:1;fill-rule:evenodd;stroke:#000000;stroke-width:3;stroke-linecap:butt;stroke-linejoin:bevel;marker:none;marker-start:none;marker-mid:none;marker-end:none;stroke-miterlimit:4;stroke-dasharray:none;stroke-dashoffset:19.2;stroke-opacity:1;visibility:visible;display:inline;overflow:visible;enable-background:accumulate"
           d="M 648.77796,1986.2315 L 696.02316,2039.3824"
           id="path3214" />
        <path
           style="opacity:1;color:#000000;fill:none;fill-opacity:1;fill-rule:evenodd;stroke:#000000;stroke-width:3;stroke-linecap:butt;stroke-linejoin:bevel;marker:none;marker-start:none;marker-mid:none;marker-end:none;stroke-miterlimit:4;stroke-dasharray:none;stroke-dashoffset:19.2;stroke-opacity:1;visibility:visible;display:inline;overflow:visible;enable-background:accumulate"
           d="M 634.43566,1996.3555 L 672.40056,2041.9134"
           id="path3216" />
      </g>
    </pattern>
    <pattern
       patternUnits="userSpaceOnUse"
       width="72.18048"
       height="64.5875"
       patternTransform="translate(795.7629,1996.5428)"
       id="pattern3249">
      <g
         id="g3243"
         transform="translate(-795.7629,-1996.5428)">
        <path
           style="opacity:1;color:#000000;fill:none;fill-opacity:1;fill-rule:evenodd;stroke:#000000;stroke-width:3;stroke-linecap:butt;stroke-linejoin:bevel;marker:none;marker-start:none;marker-mid:none;marker-end:none;stroke-miterlimit:4;stroke-dasharray:none;stroke-dashoffset:19.2;stroke-opacity:1;visibility:visible;display:inline;overflow:visible;enable-background:accumulate"
           d="M 811.60519,1998.0428 L 808.23053,2030.1021"
           id="path3235" />
        <path
           style="opacity:1;color:#000000;fill:none;fill-opacity:1;fill-rule:evenodd;stroke:#000000;stroke-width:3;stroke-linecap:butt;stroke-linejoin:bevel;marker:none;marker-start:none;marker-mid:none;marker-end:none;stroke-miterlimit:4;stroke-dasharray:none;stroke-dashoffset:19.2;stroke-opacity:1;visibility:visible;display:inline;overflow:visible;enable-background:accumulate"
           d="M 797.2629,2010.6978 L 821.72917,2011.5415"
           id="path3237" />
        <path
           style="opacity:1;color:#000000;fill:none;fill-opacity:1;fill-rule:evenodd;stroke:#000000;stroke-width:3;stroke-linecap:butt;stroke-linejoin:bevel;marker:none;marker-start:none;marker-mid:none;marker-end:none;stroke-miterlimit:4;stroke-dasharray:none;stroke-dashoffset:19.2;stroke-opacity:1;visibility:visible;display:inline;overflow:visible;enable-background:accumulate"
           d="M 854.63208,2026.7274 L 851.25742,2059.6303"
           id="path3239" />
        <path
           style="opacity:1;color:#000000;fill:none;fill-opacity:1;fill-rule:evenodd;stroke:#000000;stroke-width:3;stroke-linecap:butt;stroke-linejoin:bevel;marker:none;marker-start:none;marker-mid:none;marker-end:none;stroke-miterlimit:4;stroke-dasharray:none;stroke-dashoffset:19.2;stroke-opacity:1;visibility:visible;display:inline;overflow:visible;enable-background:accumulate"
           d="M 841.97711,2041.0697 L 866.44338,2042.757"
           id="path3241" />
      </g>
    </pattern>
    <pattern
       patternUnits="userSpaceOnUse"
       width="36.491706"
       height="35.46263"
       patternTransform="matrix(1.7546815,0,0,1.7546815,470.81789,1990.8549)"
       id="pattern3277">
      <g
         id="g3272"
         transform="matrix(0.569904,0,0,0.569904,-268.321,-1134.5961)">
        <path
           id="path3266"
           d="M 474.86243,1994.8994 L 502.96376,1994.8994 L 502.96376,2022.3018 L 474.86243,2022.3018 L 474.86243,1994.8994 z "
           style="color:#000000;fill:none;fill-opacity:1;fill-rule:evenodd;stroke:#000000;stroke-width:8.08908176;stroke-linecap:butt;stroke-linejoin:bevel;marker:none;marker-start:none;marker-mid:none;marker-end:none;stroke-miterlimit:4;stroke-dasharray:none;stroke-dashoffset:19.2;stroke-opacity:1;visibility:visible;display:inline;overflow:visible;enable-background:accumulate" />
        <rect
           y="1994.8994"
           x="502.70334"
           height="27.402412"
           width="28.10133"
           id="rect3268"
           style="opacity:1;color:#000000;fill:none;fill-opacity:1;fill-rule:evenodd;stroke:#000000;stroke-width:8.08908176;stroke-linecap:butt;stroke-linejoin:bevel;marker:none;marker-start:none;marker-mid:none;marker-end:none;stroke-miterlimit:4;stroke-dasharray:none;stroke-dashoffset:19.2;stroke-opacity:1;visibility:visible;display:inline;overflow:visible;enable-background:accumulate" />
        <rect
           style="opacity:1;color:#000000;fill:none;fill-opacity:1;fill-rule:evenodd;stroke:#000000;stroke-width:7.56267738;stroke-linecap:butt;stroke-linejoin:bevel;marker:none;marker-start:none;marker-mid:none;marker-end:none;stroke-miterlimit:4;stroke-dasharray:none;stroke-dashoffset:19.2;stroke-opacity:1;visibility:visible;display:inline;overflow:visible;enable-background:accumulate"
           id="rect3270"
           width="28.10133"
           height="27.402412"
           x="487.51736"
           y="2021.8967" />
      </g>
    </pattern>
    <pattern
       patternUnits="userSpaceOnUse"
       width="73.74949"
       height="64.4692"
       patternTransform="translate(629.19833,1980.9942)"
       id="pattern3295">
      <path
         style="opacity:1;color:#000000;fill:none;fill-opacity:1;fill-rule:evenodd;stroke:#000000;stroke-width:7.0999999;stroke-linecap:butt;stroke-linejoin:bevel;marker:none;marker-start:none;marker-mid:none;marker-end:none;stroke-miterlimit:4;stroke-dasharray:none;stroke-dashoffset:19.2;stroke-opacity:1;visibility:visible;display:inline;overflow:visible;enable-background:accumulate"
         d="M 5.23733,15.3613 L 43.20223,60.9192"
         id="path3293" />
      <path
         style="opacity:1;color:#000000;fill:none;fill-opacity:1;fill-rule:evenodd;stroke:#000000;stroke-width:7.0999999;stroke-linecap:butt;stroke-linejoin:bevel;marker:none;marker-start:none;marker-mid:none;marker-end:none;stroke-miterlimit:4;stroke-dasharray:none;stroke-dashoffset:19.2;stroke-opacity:1;visibility:visible;display:inline;overflow:visible;enable-background:accumulate"
         d="M 19.57963,5.2373 L 66.82483,58.3882"
         id="path3291" />
      <path
         style="opacity:1;color:#000000;fill:none;fill-opacity:1;fill-rule:evenodd;stroke:#000000;stroke-width:7.0999999;stroke-linecap:butt;stroke-linejoin:bevel;marker:none;marker-start:none;marker-mid:none;marker-end:none;stroke-miterlimit:4;stroke-dasharray:none;stroke-dashoffset:19.2;stroke-opacity:1;visibility:visible;display:inline;overflow:visible;enable-background:accumulate"
         d="M 30.54726,49.9515 L 70.19949,19.5796"
         id="path3289" />
      <path
         style="opacity:1;color:#000000;fill:none;fill-opacity:1;fill-rule:evenodd;stroke:#000000;stroke-width:7.0999999;stroke-linecap:butt;stroke-linejoin:bevel;marker:none;marker-start:none;marker-mid:none;marker-end:none;stroke-miterlimit:4;stroke-dasharray:none;stroke-dashoffset:19.2;stroke-opacity:1;visibility:visible;display:inline;overflow:visible;enable-background:accumulate"
         d="M 3.55,34.7656 L 42.35857,3.55"
         id="path3287" />
      <rect
         id="rect3231"
         y="2.0499895"
         x="2.0500219"
         height="60.369202"
         width="69.64949"
         style="fill:none;stroke:none;stroke-width:7.0999999;stroke-miterlimit:4;stroke-dasharray:none" />
    </pattern>
    <pattern
       patternUnits="userSpaceOnUse"
       width="74.83048"
       height="67.8875"
       patternTransform="translate(794.1129,1994.8928)"
       id="pattern3314">
      <path
         style="opacity:1;color:#000000;fill:none;fill-opacity:1;fill-rule:evenodd;stroke:#000000;stroke-width:5;stroke-linecap:butt;stroke-linejoin:bevel;marker:none;marker-start:none;marker-mid:none;marker-end:none;stroke-miterlimit:4;stroke-dasharray:none;stroke-dashoffset:19.2;stroke-opacity:1;visibility:visible;display:inline;overflow:visible;enable-background:accumulate"
         d="M 47.86421,46.1769 L 72.33048,47.8642"
         id="path3312" />
      <path
         style="opacity:1;color:#000000;fill:none;fill-opacity:1;fill-rule:evenodd;stroke:#000000;stroke-width:6.30000019;stroke-linecap:butt;stroke-linejoin:bevel;marker:none;marker-start:none;marker-mid:none;marker-end:none;stroke-miterlimit:4;stroke-dasharray:none;stroke-dashoffset:19.2;stroke-opacity:1;visibility:visible;display:inline;overflow:visible;enable-background:accumulate"
         d="M 60.51918,31.8346 L 57.14452,64.7375"
         id="path3310" />
      <path
         style="opacity:1;color:#000000;fill:none;fill-opacity:1;fill-rule:evenodd;stroke:#000000;stroke-width:6.30000019;stroke-linecap:butt;stroke-linejoin:bevel;marker:none;marker-start:none;marker-mid:none;marker-end:none;stroke-miterlimit:4;stroke-dasharray:none;stroke-dashoffset:19.2;stroke-opacity:1;visibility:visible;display:inline;overflow:visible;enable-background:accumulate"
         d="M 3.1500001,15.805 L 27.61627,16.6487"
         id="path3308" />
      <path
         style="opacity:1;color:#000000;fill:none;fill-opacity:1;fill-rule:evenodd;stroke:#000000;stroke-width:6.30000019;stroke-linecap:butt;stroke-linejoin:bevel;marker:none;marker-start:none;marker-mid:none;marker-end:none;stroke-miterlimit:4;stroke-dasharray:none;stroke-dashoffset:19.2;stroke-opacity:1;visibility:visible;display:inline;overflow:visible;enable-background:accumulate"
         d="M 17.49229,3.1500001 L 14.11763,35.2093"
         id="path3306" />
      <rect
         id="rect3256"
         y="1.6500468"
         x="1.6499785"
         height="64.587502"
         width="72.180481"
         style="fill:none;stroke:none" />
    </pattern>
    <pattern
       patternUnits="userSpaceOnUse"
       width="42.39021"
       height="43.285"
       patternTransform="translate(463.51058,2078.9974)"
       id="pattern3353">
      <path
         id="path3351"
         d="M 39.39021,3 L 39.39021,22.6865"
         style="opacity:1;color:#000000;fill:#000000;fill-opacity:1;fill-rule:evenodd;stroke:#000000;stroke-width:6;stroke-linecap:butt;stroke-linejoin:bevel;marker:none;marker-start:none;marker-mid:none;marker-end:none;stroke-miterlimit:4;stroke-dasharray:none;stroke-dashoffset:19.2;stroke-opacity:1;visibility:visible;display:inline;overflow:visible;enable-background:accumulate" />
      <path
         sodipodi:nodetypes="cc"
         id="path3349"
         d="M 11.50099,24.4762 L 11.20272,39.8376"
         style="opacity:1;color:#000000;fill:#000000;fill-opacity:1;fill-rule:evenodd;stroke:#000000;stroke-width:6;stroke-linecap:butt;stroke-linejoin:bevel;marker:none;marker-start:none;marker-mid:none;marker-end:none;stroke-miterlimit:4;stroke-dasharray:none;stroke-dashoffset:19.2;stroke-opacity:1;visibility:visible;display:inline;overflow:visible;enable-background:accumulate" />
      <path
         sodipodi:nodetypes="cc"
         id="path3347"
         d="M 29.84524,25.0727 L 29.39782,40.285"
         style="opacity:1;color:#000000;fill:#000000;fill-opacity:1;fill-rule:evenodd;stroke:#000000;stroke-width:6;stroke-linecap:butt;stroke-linejoin:bevel;marker:none;marker-start:none;marker-mid:none;marker-end:none;stroke-miterlimit:4;stroke-dasharray:none;stroke-dashoffset:19.2;stroke-opacity:1;visibility:visible;display:inline;overflow:visible;enable-background:accumulate" />
      <path
         sodipodi:nodetypes="cc"
         id="path3345"
         d="M 3.00001,21.7916 L 39.39021,22.0899"
         style="opacity:1;color:#000000;fill:#000000;fill-opacity:1;fill-rule:evenodd;stroke:#000000;stroke-width:6;stroke-linecap:butt;stroke-linejoin:bevel;marker:none;marker-start:none;marker-mid:none;marker-end:none;stroke-miterlimit:4;stroke-dasharray:none;stroke-dashoffset:19.2;stroke-opacity:1;visibility:visible;display:inline;overflow:visible;enable-background:accumulate" />
      <path
         id="path3343"
         d="M 21.49339,4.1931 L 21.49339,21.4933"
         style="opacity:1;color:#000000;fill:#000000;fill-opacity:1;fill-rule:evenodd;stroke:#000000;stroke-width:6;stroke-linecap:butt;stroke-linejoin:bevel;marker:none;marker-start:none;marker-mid:none;marker-end:none;stroke-miterlimit:4;stroke-dasharray:none;stroke-dashoffset:19.2;stroke-opacity:1;visibility:visible;display:inline;overflow:visible;enable-background:accumulate" />
      <path
         id="path3341"
         d="M 3,3 L 39.39021,3"
         style="opacity:1;color:#000000;fill:#000000;fill-opacity:1;fill-rule:evenodd;stroke:#000000;stroke-width:6;stroke-linecap:butt;stroke-linejoin:bevel;marker:none;marker-start:none;marker-mid:none;marker-end:none;stroke-miterlimit:4;stroke-dasharray:none;stroke-dashoffset:19.2;stroke-opacity:1;visibility:visible;display:inline;overflow:visible;enable-background:accumulate" />
    </pattern>
  </defs>
  <sodipodi:namedview
     inkscape:window-height="1001"
     inkscape:window-width="1680"
     inkscape:pageshadow="2"
     inkscape:pageopacity="0.0"
     guidetolerance="10.0"
     gridtolerance="10.0"
     objecttolerance="10.0"
     borderopacity="1.0"
     bordercolor="#666666"
     pagecolor="#ffffff"
     id="base"
     inkscape:zoom="1.1853054"
     inkscape:cx="-129.8284"
     inkscape:cy="237.0822"
     inkscape:window-x="-4"
     inkscape:window-y="-4"
     inkscape:current-layer="layer1"
     inkscape:document-units="mm"
     showgrid="false" />
  <g
     id="g3285" />
  <g
     id="g3304" />
  <g
     inkscape:groupmode="layer"
     id="layer2"
     inkscape:label="ref"
     style="opacity:0.3317308;display:none"
     sodipodi:insensitive="true">
    <g
       id="g3367"
       transform="matrix(-0.1237927,0,0,0.1179023,440.44227,39.504973)">
      <path
         style="fill:#000000;fill-opacity:1;stroke:#000000;stroke-width:8.853158;stroke-miterlimit:4;stroke-dasharray:none;stroke-opacity:1"
         d="M 2559.8055,14773.27 C 2577.3682,14770.789 2595.7773,14766.755 2608.6604,14753.546 C 2617.7602,14742.518 2632.5752,14744.59 2645.099,14746.049 C 2668.4888,14747.976 2692.1721,14750.67 2715.595,14748.143 C 2727.1235,14746.136 2738.5492,14743.604 2749.839,14740.147 C 2761.0204,14736.716 2769.8863,14728.425 2779.4042,14722.167 C 2790.8585,14708.445 2799.9075,14692.661 2807.686,14676.607 C 2812.4237,14663.485 2814.9579,14649.817 2815.6507,14635.834 C 2819.1967,14623.534 2817.9994,14610.269 2813.1769,14598.484 C 2812.298,14583.572 2805.2888,14570.027 2801.0195,14555.928 C 2793.6337,14539.125 2780.0995,14526.337 2769.9084,14511.403 C 2766.7129,14499.35 2789.4351,14502.282 2797.2519,14497.462 C 2818.0897,14491.772 2837.3513,14481.602 2858.0968,14475.659 C 2872.2187,14469.473 2884.323,14459.444 2898.978,14454.307 C 2909.0523,14446.801 2922.0997,14444.742 2931.9869,14436.701 C 2947.5142,14424.951 2962.3927,14412.312 2978.5854,14401.444 C 2990.3542,14391.58 3002.1423,14381.753 3014.1905,14372.25 C 3023.8974,14363.379 3034.3431,14355.274 3041.1031,14343.73 C 3053.0388,14329.351 3065.3788,14315.252 3075.1013,14299.191 C 3082.7685,14288.791 3087.597,14276.811 3089.6694,14264.082 C 3092.0259,14252.323 3095.7908,14240.207 3092.2888,14228.283 C 3094.183,14216.315 3088.8085,14205.429 3086.693,14193.885 C 3082.2975,14174.003 3082.5156,14153.431 3078.4238,14133.551 C 3069.2636,14105.855 3067.9637,14076.323 3059.9293,14048.317 C 3056.2109,14027.179 3054.4126,14005.721 3049.3649,13984.838 C 3043.4271,13950.286 3041.096,13914.986 3043.9245,13880.022 C 3047.1777,13868.552 3050.5081,13857.133 3051.2996,13845.162 C 3058.3875,13808.35 3072.1359,13773.297 3080.1873,13736.719 C 3083.8456,13719.227 3095.1499,13704.195 3096.2703,13686.077 C 3101.7377,13666.186 3106.356,13645.378 3104.0123,13624.636 C 3097.2768,13614.162 3093.4482,13601.829 3097.1479,13589.325 C 3103.8842,13553.082 3108.6733,13513.576 3092.6174,13478.991 C 3084.2871,13463.42 3071.7607,13449.888 3057.286,13439.848 C 3044.3411,13432.676 3031.2967,13425.253 3017.3054,13420.348 C 3003.0375,13421.31 2989.0639,13417.007 2974.7912,13417.623 C 2961.5413,13418.451 2949.5562,13424.951 2936.465,13426.997 C 2925.3341,13428.261 2911.0549,13442.653 2902.2978,13430.801 C 2899.1696,13418.928 2891.2167,13409.018 2888.8175,13396.83 C 2884.8874,13382.176 2878.1706,13368.51 2874.2002,13353.856 C 2866.0032,13335.139 2856.1378,13317.127 2848.1324,13298.316 C 2836.2466,13280.501 2826.3776,13261.312 2813.2727,13244.337 C 2803.4011,13233.272 2795.1659,13220.832 2784.006,13210.912 C 2770.7682,13197.116 2757.4503,13183.129 2741.3021,13172.727 C 2733.5386,13161.883 2722.5533,13154.548 2711.3749,13147.526 C 2696.8983,13137.891 2684.7319,13124.401 2667.7033,13119.121 C 2649.0867,13111.539 2634.0691,13096.774 2614.4054,13091.607 C 2602.686,13085.67 2591.5336,13078.558 2578.6399,13075.06 C 2567.8228,13069.949 2552.6096,13068.011 2547.7961,13055.594 C 2539.4844,13037.272 2544.3632,13016.629 2543.8113,12997.265 C 2544.4128,12966.612 2548.4454,12935.814 2545.443,12905.216 C 2541.5628,12871.808 2544.8093,12837.948 2540.5148,12804.536 C 2537.1465,12768.226 2536.5956,12731.574 2530.5806,12695.561 C 2524.5658,12672.219 2522.3125,12648.167 2517.7683,12624.561 C 2514.1408,12612.327 2513.7116,12599.437 2509.1387,12587.408 C 2502.6427,12566.823 2496.4264,12546.13 2491.8837,12525.023 C 2487.8197,12511.938 2484.5836,12498.597 2477.9964,12486.431 C 2472.2734,12468.66 2464.8491,12451.549 2456.3922,12434.914 C 2450.546,12420.06 2443.7865,12405.601 2434.5075,12392.533 C 2421.0021,12373.097 2410.2531,12351.932 2396.8159,12332.478 C 2380.936,12309.007 2358.6566,12291.069 2335.9661,12274.563 C 2320.2153,12264.215 2301.7091,12256.662 2282.513,12258.782 C 2266.0771,12257.646 2251.2844,12266.255 2239.6472,12277.106 C 2223.5731,12289.716 2216.5006,12309.518 2210.0811,12328.156 C 2206.8594,12342.473 2201.6132,12356.21 2198.2028,12370.448 C 2193.1732,12400.752 2190.3554,12431.392 2184.6435,12461.594 C 2178.5177,12498.556 2182.8544,12536.188 2178.5838,12573.304 C 2183.0863,12606.191 2180.7166,12639.638 2184.8416,12672.59 C 2186.7973,12695.32 2187.3426,12718.187 2191.5211,12740.669 C 2194.1052,12762.768 2193.2744,12785.338 2199.6199,12806.881 C 2202.9793,12825.394 2207.6485,12843.748 2208.0454,12862.635 C 2213.2199,12882.873 2215.9422,12903.69 2220.65,12924.086 C 2223.859,12938.495 2224.297,12953.405 2229.5423,12967.36 C 2234.4552,12985.01 2239.5345,13002.991 2239.5529,13021.395 C 2243.2929,13032.56 2246.6933,13050.227 2230.0179,13051.71 C 2215.1786,13056.561 2201.3277,13063.8 2188.5387,13072.706 C 2172.5185,13084.38 2171.4112,13060.952 2168.8381,13050.602 C 2162.8593,13028.921 2154.4969,13007.892 2149.4463,12985.996 C 2143.2498,12973.654 2144.4225,12958.813 2135.6803,12947.551 C 2127.7976,12932.138 2123.1212,12915.29 2114.9201,12899.975 C 2103.3273,12876.722 2095.1901,12851.659 2080.4117,12830.106 C 2066.5907,12799.631 2049.9405,12770.491 2031.2381,12742.741 C 2021.142,12722.843 2006.6532,12705.739 1994.5824,12687.06 C 1976.3168,12660.463 1958.205,12633.51 1935.3031,12610.595 C 1921.6334,12594.495 1908.05,12578.276 1891.9874,12564.445 C 1879.3115,12553.684 1868.3208,12540.813 1854.6112,12531.376 C 1837.0526,12523.826 1821.0736,12512.486 1802.1673,12508.145 C 1779.5606,12501.625 1754.453,12505.247 1734.7969,12518.273 C 1718.1831,12526.2 1707.8395,12542.163 1698.7787,12557.462 C 1695.0632,12570.939 1690.2806,12584.438 1688.5247,12598.338 C 1689.1009,12611.651 1686.0115,12624.691 1687.6415,12638.001 C 1688.4042,12660.389 1691.4459,12682.582 1694.0961,12704.773 C 1694.8206,12725.039 1699.7944,12744.837 1704.2781,12764.498 C 1706.902,12788.011 1716.2469,12810.163 1719.8291,12833.541 C 1723.9641,12845.796 1725.8814,12858.678 1730.7164,12870.594 C 1735.046,12885.981 1738.1492,12901.787 1743.8744,12916.807 C 1748.3121,12928.538 1753.3927,12940.023 1755.7427,12952.411 C 1760.877,12964.596 1763.1158,12977.801 1769.4919,12989.438 C 1775.4879,13003.121 1780.9777,13017.008 1787.427,13030.505 C 1795.6293,13051.198 1807.2078,13070.372 1816.8338,13090.415 C 1826.1204,13102.748 1829.5526,13117.946 1837.2763,13131.029 C 1849.2692,13145.883 1856.0253,13164.016 1867.9194,13178.935 C 1887.2039,13204.134 1905.2485,13230.473 1928.1188,13252.655 C 1938.0233,13266.018 1949.0084,13278.546 1960.8641,13290.264 C 1969.5161,13299.352 1978.866,13307.965 1986.305,13318.083 C 1983.031,13339.901 1974.1582,13360.354 1966.1734,13380.748 C 1962.2554,13392.803 1961.4363,13405.62 1956.8952,13417.51 C 1954.9482,13430.808 1948.9217,13443.169 1948.6926,13456.783 C 1946.9703,13479.576 1946.8274,13502.463 1945.6193,13525.28 C 1945.8232,13560.185 1949.5546,13595.052 1956.0102,13629.32 C 1962.8294,13660.785 1969.8715,13692.372 1982.1835,13722.238 C 1986.8016,13736.45 1989.8829,13751.317 1998.2474,13764.001 C 2004.2494,13777.53 2010.1244,13791.146 2018.0888,13803.72 C 2026.415,13819.313 2038.0865,13832.617 2047.1406,13847.733 C 2050.6803,13857.877 2071.5953,13868.238 2061.9365,13878.605 C 2044.7526,13887.827 2026.0903,13878.774 2008.9995,13874.374 C 1983.1619,13867.737 1955.6858,13868.79 1929.7249,13874.044 C 1906.1099,13879.584 1887.9619,13897.923 1874.6217,13917.279 C 1857.5083,13943.733 1847.8866,13975.407 1850.8994,14007.037 C 1850.9065,14024.992 1858.7463,14041.409 1862.2364,14058.697 C 1860.4016,14072.289 1875.9766,14074.064 1880.0389,14084.713 C 1887.3203,14096.266 1899.1984,14103.833 1909.5653,14111.876 C 1917.9931,14121.866 1933.2559,14119.439 1944.4686,14124.788 C 1956.3737,14128.616 1969.06,14129.918 1980.632,14134.691 C 1990.7078,14146.747 1996.2781,14163.515 2010.6461,14172.302 C 2022.5153,14177.72 2030.3644,14189.934 2043.8406,14192.11 C 2055.5732,14200.67 2067.1838,14209.155 2079.9035,14216.243 C 2104.8309,14234.667 2135.0387,14245.534 2157.1998,14267.775 C 2169.8412,14275.119 2172.7162,14290.95 2175.8513,14304.078 C 2178.4067,14328.077 2181.7746,14352.025 2188.1127,14375.365 C 2191.4422,14389.889 2195.6368,14404.336 2196.4682,14419.263 C 2200.099,14432.732 2204.7413,14446.179 2202.0178,14460.333 C 2204.4058,14472.555 2207.9002,14484.706 2209.8219,14497.124 C 2215.9255,14513.761 2233.8255,14520.012 2248.6394,14526.636 C 2264.5904,14531.476 2257.0142,14549.577 2257.7464,14561.518 C 2257.3382,14589.567 2254.6748,14617.885 2258.7384,14645.764 C 2262.1266,14663.528 2275.8382,14677.678 2292.302,14684.321 C 2305.0334,14689.891 2314.649,14701.208 2328.6308,14703.987 C 2357.8549,14713.753 2384.4489,14730.059 2414.2735,14738.177 C 2424.3797,14743.398 2435.1042,14746.812 2445.5179,14751.279 C 2465.7267,14759.747 2487.4577,14763.584 2508.5274,14769.276 C 2525.3556,14772.982 2542.6255,14773.875 2559.8055,14773.27 z M 2526.9604,14740.381 C 2488.704,14735.155 2452.375,14721.242 2417.256,14705.723 C 2378.4311,14691.045 2339.5314,14675.207 2304.8598,14652.082 C 2290.0287,14642.497 2286.7385,14622.775 2287.7134,14606.393 C 2288.5082,14585.512 2288.7464,14564.548 2290.9831,14543.764 C 2300.1275,14535.568 2314.1256,14544.782 2324.978,14545.814 C 2338.184,14548.504 2351.2668,14552.735 2364.4785,14554.705 C 2376.0351,14549.564 2388.1523,14552.059 2400.2835,14552.661 C 2438.0314,14553.311 2475.8952,14554.595 2513.5879,14552.013 C 2524.7069,14551.367 2536.0034,14548.95 2546.9633,14548.56 C 2567.4411,14559.016 2591.4185,14566.96 2603.4186,14588.11 C 2614.1331,14604.143 2621.8854,14622.649 2621.3736,14642.246 C 2621.5728,14658.844 2622.8761,14676.139 2615.4774,14691.582 C 2605.9405,14722.568 2573.5252,14743.645 2541.4286,14741.512 C 2536.5899,14741.397 2531.7616,14740.983 2526.9604,14740.381 z M 2668.7235,14716.872 C 2658.4414,14714.711 2636.0892,14716.669 2639.2223,14700.716 C 2641.7693,14688.166 2645.6207,14675.946 2646.4209,14663.041 C 2652.9461,14649.422 2644.5809,14636.07 2644.0607,14622.071 C 2642.6358,14604.202 2632.4801,14588.852 2623.8875,14573.677 C 2618.1007,14563.681 2602.3173,14552.958 2605.2946,14541.544 C 2618.8264,14534.394 2635.2731,14538.243 2649.2319,14531.964 C 2662.9146,14527.052 2677.4715,14525.184 2691.434,14521.774 C 2705.6447,14513.271 2726.7637,14510.644 2739.0275,14523.933 C 2749.1009,14534.324 2761.9351,14543.536 2766.6177,14557.772 C 2776.0827,14572.611 2785.9188,14588.475 2785.9487,14606.721 C 2787.785,14620.261 2786.7442,14633.825 2783.9834,14647.142 C 2780.0999,14675.857 2763.2159,14706.271 2733.6465,14714.542 C 2720.3371,14719.98 2706.0067,14719.564 2691.9484,14718.576 C 2684.1968,14718.16 2676.4517,14717.605 2668.7235,14716.872 z M 2444.4435,14523.671 C 2408.7005,14522.748 2372.8689,14520.754 2337.4679,14515.604 C 2324.1049,14512.771 2311.2636,14507.851 2297.5636,14506.667 C 2283.3011,14502.063 2267.5573,14499.744 2254.9399,14491.41 C 2243.6505,14483.991 2240.1,14470.624 2239.4942,14457.909 C 2237.3564,14429.591 2229.9902,14402.053 2225.7356,14374.047 C 2221.0113,14357.516 2221.0306,14339.976 2215.7649,14323.523 C 2212.88,14307.702 2206.8407,14292.742 2204.0219,14276.922 C 2194.4659,14246.278 2164.8285,14229.404 2139.7838,14212.63 C 2122.3214,14199.399 2102.4926,14190.029 2083.4742,14179.383 C 2064.9547,14166.948 2045.2583,14155.998 2028.2986,14141.421 C 2017.9659,14133.252 2016.2161,14118.968 2020.3027,14107.106 C 2024.9414,14092.742 2019.9969,14077.522 2024.4849,14063.086 C 2029.0923,14037.239 2031.4406,14011.023 2037.4263,13985.427 C 2038.8608,13963.668 2045.0641,13941.969 2055.5602,13922.845 C 2065.8939,13910.369 2083.2245,13904.723 2099.0407,13904.961 C 2113.9326,13908.683 2123.6115,13922.117 2136.0334,13930.299 C 2148.6031,13936.026 2159.8771,13944.041 2172.2415,13950.658 C 2186.1356,13956.292 2199.9204,13962.339 2214.4482,13966.156 C 2226.4827,13973.58 2240.3449,13977.16 2254.3974,13978.183 C 2275.9221,13981.866 2296.9285,13989.066 2319.0204,13988.798 C 2348.2722,13989.101 2377.6835,13989.138 2406.7742,13985.783 C 2420.8939,13982.57 2435.2104,13980.923 2449.7001,13981.519 C 2467.0246,13980.856 2484.9174,13980.91 2500.917,13988.544 C 2522.0006,13995.874 2544.829,14002.657 2567.1873,13997.257 C 2581.3887,13995.872 2594.43,13990.287 2607.606,13985.332 C 2622.3611,13981.103 2631.1239,13967.038 2643.1996,13958.459 C 2652.6082,13947.093 2661.4496,13935.081 2667.6658,13921.556 C 2673.2919,13909.556 2679.2846,13896.913 2691.6137,13890.504 C 2703.5908,13880.909 2717.6869,13874.551 2729.7388,13865.03 C 2745.3596,13856.347 2757.4248,13842.876 2771.7707,13832.396 C 2795.7631,13810.738 2818.9418,13787.796 2838.4091,13761.929 C 2847.1239,13749.515 2854.4437,13736.224 2861.588,13722.91 C 2871.0961,13709.95 2876.2563,13694.158 2883.9099,13680.011 C 2890.5723,13667.782 2890.8699,13653.504 2895.7307,13640.656 C 2900.6383,13627.076 2896.1854,13611.022 2903.3579,13598.572 C 2912.1685,13588.198 2927.4591,13594.893 2938.8741,13595.405 C 2966.9149,13599.374 2994.5923,13605.462 3022.234,13611.44 C 3037.206,13613.04 3052.3758,13616.655 3065.9267,13623.32 C 3078.9332,13630.926 3073.2747,13648.643 3071.6597,13660.664 C 3067.9169,13677.254 3062.8612,13693.505 3059.0844,13710.065 C 3052.932,13730.041 3046.289,13750.068 3043.3647,13770.785 C 3036.9946,13782.082 3036.7144,13795.486 3031.4805,13807.335 C 3024.3662,13830.502 3018.0952,13853.999 3013.094,13877.718 C 3009.0137,13903.8 3011.7031,13930.321 3016.2292,13956.149 C 3018.8218,13979.072 3024.1074,14001.549 3026.0131,14024.542 C 3027.8686,14040.002 3032.1622,14055.008 3034.3156,14070.399 C 3041.2058,14097.746 3044.9294,14125.766 3051.3443,14153.228 C 3052.024,14166.005 3056.1377,14178.028 3057.6046,14190.591 C 3059.3037,14206.871 3064.5456,14222.93 3061.8282,14239.463 C 3061.4324,14250.769 3059.2441,14262.103 3052.534,14271.458 C 3045.3854,14283.938 3037.9494,14296.388 3029.1776,14307.594 C 3020.1058,14316.201 3011.5529,14325.495 3005.2351,14336.326 C 2994.6094,14346.23 2983.0708,14355.385 2972.9267,14365.637 C 2954.2622,14375.233 2940.671,14392.195 2922.2757,14402.209 C 2911.0969,14411.154 2897.7179,14416.71 2885.9014,14424.745 C 2870.5616,14431.678 2855.1846,14438.621 2840.1576,14446.285 C 2825.3155,14451.574 2811.0536,14458.555 2795.9423,14463.189 C 2773.2947,14468.929 2751.9531,14480.38 2728.1673,14481.063 C 2714.4027,14484.236 2701.8696,14491.475 2687.7382,14493.37 C 2667.8988,14500.123 2647.4401,14504.58 2626.9762,14508.904 C 2610.2536,14513.141 2592.9787,14514.661 2575.9916,14517.424 C 2550.9146,14519.395 2525.7594,14520.506 2500.817,14523.877 C 2482.0368,14524.434 2463.231,14523.602 2444.4435,14523.671 z M 1953.831,14098.375 C 1925.7289,14091.825 1902.2461,14071.576 1889.6775,14045.857 C 1877.6247,14025.255 1877.1992,14000.498 1879.6888,13977.42 C 1884.3476,13963.022 1887.5999,13947.633 1896.1758,13934.92 C 1906.4937,13916.005 1926.6893,13902.48 1948.4086,13901.37 C 1972.719,13898.671 1998.3396,13898.589 2020.9649,13909.097 C 2030.0278,13920.082 2016.0516,13935.005 2016.2372,13947.949 C 2013.712,13963.702 2008.763,13979.003 2008.3566,13995.083 C 2005.4513,14022.333 1998.6811,14048.974 1995.8699,14076.238 C 1993.2282,14086.798 1995.0601,14106.611 1978.3878,14102.476 C 1970.1067,14101.856 1961.8833,14100.386 1953.831,14098.375 z M 2540.3527,13973.118 C 2531.6996,13974.731 2516.6354,13965.816 2531.3962,13960.941 C 2550.6665,13954.194 2570.973,13950.511 2589.2356,13941.009 C 2602.2334,13935.079 2614.972,13928.175 2628.809,13924.425 C 2637.3359,13934.079 2618.9519,13948.105 2610.6186,13953.808 C 2601.0816,13960.878 2591.6489,13968.796 2579.5101,13970.573 C 2567.6299,13974.804 2554.8293,13976.738 2542.4727,13973.443 L 2540.3527,13973.118 L 2540.3527,13973.118 z M 2299.8418,13960.915 C 2283.7348,13957.497 2267.0551,13957.395 2251.3713,13951.974 C 2220.9285,13947.026 2193.4443,13932.183 2166.8018,13917.398 C 2153.9338,13910.347 2143.829,13899.419 2130.9134,13892.442 C 2111.9476,13876.825 2094.0073,13859.728 2078.2963,13840.823 C 2069.8088,13826.529 2057.2226,13815.091 2049.8326,13800.016 C 2036.6389,13777.923 2025.6831,13754.622 2015.4367,13731.059 C 2007.2659,13716.606 2004.5371,13699.878 1998.1579,13684.634 C 1990.0296,13658.897 1986.2569,13632.064 1980.4493,13605.763 C 1973.9978,13567.995 1973.3727,13529.407 1975.3325,13491.22 C 1980.6479,13461.27 1981.3716,13430.364 1991.0945,13401.263 C 1999.3871,13373.02 2010.0069,13345.539 2019.3336,13317.65 C 2023.619,13303.741 2008.1891,13295.821 2000.4539,13286.995 C 1975.3843,13263.166 1951.8742,13237.745 1930.2065,13210.786 C 1918.1429,13197.727 1906.5832,13184.163 1897.625,13168.73 C 1889.035,13156.941 1880.9243,13144.836 1872.3816,13133.034 C 1861.5584,13117.174 1857.1266,13098.077 1845.7353,13082.529 C 1836.5755,13071.679 1832.9909,13057.941 1825.9698,13045.838 C 1818.3441,13035.816 1815.7589,13023.376 1810.079,13012.259 C 1795.7645,12983.763 1787.5554,12952.757 1774.2359,12923.845 C 1767.1329,12901.147 1762.3323,12877.777 1754.6787,12855.227 C 1750.0522,12838.056 1747.0925,12820.493 1741.9982,12803.428 C 1730.2446,12750.054 1717.0907,12696.469 1715.8314,12641.549 C 1715.4326,12614.924 1716.45,12586.404 1730.5027,12562.945 C 1739.4336,12551.744 1749.7262,12539.326 1765.0612,12537.937 C 1789.7393,12532.991 1814.0373,12543.035 1834.8021,12555.569 C 1845.3062,12560.459 1853.2416,12568.589 1862.4965,12575.213 C 1884.3298,12594.842 1905.0536,12615.893 1923.0622,12639.104 C 1933.2444,12647.72 1938.9471,12659.886 1947.8943,12669.49 C 1959.4208,12681.899 1967.0965,12697.273 1977.6194,12710.517 C 1990.1089,12728.106 2000.0191,12747.344 2012.1759,12765.142 C 2020.2793,12782.722 2035.0551,12796.23 2042.1482,12814.331 C 2049.4166,12824.841 2056.2148,12835.659 2061.0071,12847.593 C 2073.0249,12871.412 2083.0199,12896.156 2094.428,12920.247 C 2105.1905,12941.881 2115.7474,12963.749 2122.4172,12987.041 C 2127.8416,13000.375 2132.8832,13013.839 2135.4092,13028.067 C 2139.1392,13045.565 2145.2006,13062.426 2149.6361,13079.699 C 2151.8487,13092.563 2157.7443,13108.615 2171.7584,13112.25 C 2186.1689,13112.861 2199.1396,13103.602 2210.5725,13095.84 C 2226.2222,13083.968 2246.8946,13083.806 2264.6034,13076.931 C 2278.3932,13071.217 2275.9613,13055.715 2274.1256,13043.911 C 2271.2737,13018.278 2265.892,12993.073 2259.1953,12968.201 C 2251.4515,12937.678 2245.7281,12906.713 2241.1651,12875.573 C 2236.4386,12856.82 2232.6341,12837.87 2230.449,12818.64 C 2226.3793,12797.498 2221.8686,12776.423 2220.5057,12754.87 C 2218.2164,12730.824 2217.2692,12706.622 2213.0636,12682.803 C 2208.0053,12622.35 2209.8026,12561.521 2207.1225,12501.018 C 2213.9616,12473.541 2213.688,12444.93 2218.6639,12417.149 C 2221.4195,12386.718 2230.3088,12357.229 2239.1907,12328.135 C 2245.6884,12313.92 2256.2972,12301.308 2268.7178,12291.92 C 2281.9607,12287.969 2297.4077,12285.559 2309.936,12292.982 C 2335.0923,12304.8 2354.0076,12326.073 2372.0476,12346.576 C 2382.1,12363.473 2395.6162,12378.228 2403.8052,12396.276 C 2419.5271,12418.534 2432.3003,12442.884 2442.7298,12468.063 C 2449.7954,12487.085 2460.622,12504.705 2464.5174,12524.847 C 2468.8214,12538.288 2472.3696,12551.937 2475.5029,12565.65 C 2480.168,12580.738 2481.6523,12596.717 2487.7885,12611.339 C 2489.5927,12623.713 2494.7381,12635.4 2495.9759,12647.95 C 2501.7449,12685.79 2507.8254,12723.61 2510.5636,12761.825 C 2513.1765,12798.328 2516.1147,12834.844 2517.0983,12871.431 C 2517.5657,12907.663 2516.8129,12943.912 2517.1551,12980.135 C 2516.2105,13004.146 2514.7624,13028.218 2509.9363,13051.799 C 2506.2802,13064.431 2508.3614,13081.24 2523.1881,13085.161 C 2561.3056,13099.197 2598.713,13115.287 2634.835,13133.851 C 2665.657,13148.423 2693.22,13169.038 2720.1856,13189.69 C 2731.5027,13198.256 2741.2104,13208.779 2752.704,13216.985 C 2770.5376,13234.201 2787.7425,13252.205 2802.6826,13271.983 C 2808.9897,13283.297 2816.7346,13294.081 2822.1139,13305.974 C 2830.1949,13323.756 2841.3148,13340.172 2847.1272,13359.005 C 2852.5222,13376.606 2862.6767,13392.354 2866.8754,13410.407 C 2879.77,13455.526 2889.6784,13502.253 2886.8535,13549.439 C 2885.3363,13580.592 2880.596,13611.626 2871.5548,13641.505 C 2870.202,13653.641 2864.9318,13664.465 2860.2238,13675.546 C 2850.7423,13695.393 2841.3439,13715.43 2829.6533,13734.083 C 2817.8238,13750.445 2805.4975,13766.519 2791.0089,13780.677 C 2772.7541,13800.063 2750.5454,13814.961 2730.8357,13832.738 C 2712.6583,13846.138 2695.0295,13860.634 2674.1839,13869.826 C 2659.0411,13878.061 2644.8475,13887.966 2628.9198,13894.765 C 2612.9982,13902.972 2598.7607,13914.405 2581.3117,13919.529 C 2563.744,13924.92 2547.743,13934.411 2529.696,13938.455 C 2485.3683,13950.765 2439.6999,13957.243 2394.0476,13962.137 C 2371.0787,13966.31 2347.5164,13963.999 2324.3201,13963.351 C 2316.1442,13962.816 2307.9036,13962.456 2299.8418,13960.915 z M 2533.7863,13862.821 C 2545.1459,13851.966 2553.0247,13837.548 2565.9668,13828.451 C 2578.2805,13822.603 2592.5937,13824.014 2605.6325,13820.54 C 2615.7889,13820.802 2634.1532,13805.963 2619.9624,13799.079 C 2611.1442,13798.629 2587.0057,13796.071 2598.0237,13782.962 C 2610.4055,13774.377 2607.2173,13754.62 2590.1156,13756.712 C 2579.4019,13764.879 2573.6132,13778.085 2563.7722,13787.31 C 2558.1946,13800.696 2543.6614,13802.385 2530.9263,13802.654 C 2517.6727,13804.427 2501.0659,13801.139 2492.1055,13813.686 C 2483.2127,13827.211 2503.6608,13831.978 2513.2903,13833.116 C 2527.3551,13841.519 2501.0862,13855.2 2509.6283,13867.882 C 2516.0074,13881.451 2527.9323,13870.039 2533.7863,13862.821 z M 2240.0831,13730.955 C 2251.525,13724.756 2261.1385,13712.748 2259.4138,13699.039 C 2258.0108,13687.443 2252.3467,13676.135 2244.9911,13667.14 C 2237.9214,13656.836 2225.7293,13654.048 2213.99,13656.233 C 2203.9523,13661.149 2193.8373,13671.774 2195.0535,13683.923 C 2195.2193,13697.799 2198.6933,13712.451 2209.9814,13721.587 C 2217.4586,13729.624 2229.1559,13735.932 2240.0831,13730.955 z M 2736.1134,13524.181 C 2754.5947,13506.048 2750.2538,13471.364 2729.2886,13456.813 C 2720.2599,13449.513 2703.9723,13447.153 2695.484,13456.237 C 2688.0558,13465.759 2679.7181,13478.783 2686.7475,13490.813 C 2691.0528,13505.491 2698.6672,13522.291 2714.9357,13526.357 C 2721.8372,13527.855 2730.1105,13528.677 2736.1134,13524.181 z M 3030.2273,13588.807 C 3012.9049,13584.723 2994.9352,13584.097 2977.7615,13579.212 C 2962.1378,13578.511 2947.67,13573.043 2932.6051,13569.612 C 2916.9298,13569.811 2904.8526,13558.328 2908.4528,13542.28 C 2908.8494,13521.888 2907.9549,13501.399 2904.8272,13481.248 C 2907.2,13469.996 2918.5689,13460.533 2929.6203,13457.754 C 2949.8583,13450.391 2971.2868,13443.085 2993.1006,13446.756 C 3008.8465,13447.762 3024.0684,13452.392 3038.531,13458.415 C 3053.1134,13466.48 3064.3106,13479.791 3072.2798,13494.198 C 3075.4877,13506.215 3079.3779,13518.27 3078.0235,13530.935 C 3078.2584,13548.223 3076.9328,13565.699 3070.0532,13581.789 C 3066.3045,13598.37 3045.5079,13590.127 3033.6771,13589.685 L 3031.8013,13589.26 L 3030.2273,13588.807 L 3030.2273,13588.807 z M 2999.2413,13182.16 C 3011.7432,13181.514 3024.1182,13181.531 3036.3073,13178.213 C 3050.1901,13178.118 3062.8543,13171.633 3076.6369,13170.306 C 3088.774,13164.545 3101.8797,13161.985 3114.3974,13157.527 C 3126.018,13148.031 3142.275,13147.63 3153.5087,13137.768 C 3164.3043,13132.616 3174.1163,13125.513 3184.2486,13119.034 C 3202.8626,13108.097 3219.331,13094.065 3236.1431,13080.648 C 3244.8304,13070.385 3256.1273,13062.591 3263.9951,13051.491 C 3274.9823,13036.381 3289.801,13024.07 3297.7685,13006.884 C 3309.1727,12991.289 3319.0654,12974.543 3325.9426,12956.418 C 3333.1029,12944.235 3338.6048,12931.379 3340.305,12917.226 C 3343.5519,12902.888 3350.0628,12889.113 3349.5732,12874.173 C 3354.198,12851.271 3352.7908,12827.799 3353.8267,12804.583 C 3354.1468,12783.474 3349.0795,12762.799 3347.4075,12741.85 C 3340.6765,12712.946 3331.7261,12684.338 3319.1094,12657.441 C 3309.5726,12638.018 3298.9426,12619.142 3286.3391,12601.548 C 3281.8786,12588.79 3269.4242,12582.34 3261.9553,12571.717 C 3245.1093,12551.51 3223.9211,12535.548 3204.4696,12518 C 3190.0582,12505.711 3172.1233,12498.9 3156.3674,12488.646 C 3144.3376,12485.063 3134.6747,12476.675 3122.8246,12472.695 C 3108.9795,12469.31 3097.2276,12459.656 3082.7772,12458.123 C 3058.888,12446.963 3032.134,12444.533 3006.213,12442.064 C 2984.4436,12440.734 2963.0713,12445.307 2941.5917,12447.808 C 2927.877,12448.168 2914.4723,12450.856 2901.5209,12455.271 C 2890.7396,12456.277 2880.1436,12458.188 2870.1116,12462.493 C 2855.9727,12467.76 2843.269,12476.185 2830.0779,12483.409 C 2820.1751,12489.693 2809.2134,12494.123 2800.5996,12502.266 C 2789.3963,12507.77 2778.2701,12513.774 2770.071,12523.582 C 2752.9053,12540.588 2731.1578,12553.551 2718.9596,12575.018 C 2711.6246,12586.081 2700.8962,12594.805 2695.9186,12607.309 C 2687.2412,12621.398 2676.3574,12634.347 2671.4236,12650.416 C 2665.8444,12663.77 2656.4744,12675.427 2654.1725,12690.062 C 2649.2725,12703.787 2644.4756,12717.448 2643.6899,12732.168 C 2639.312,12744.306 2636.0456,12756.905 2635.9342,12769.956 C 2635.1225,12801.165 2633.8107,12832.676 2638.2335,12863.682 C 2645.3875,12897.417 2652.9162,12931.559 2667.3751,12963.04 C 2685.3332,12994.525 2699.3419,13028.847 2724.1952,13055.845 C 2733.6463,13064.897 2739.4903,13077.527 2750.5818,13084.753 C 2763.6747,13090.627 2768.135,13106.053 2780.6487,13113.006 C 2794.6377,13122.842 2811.0517,13128.827 2824.4723,13139.619 C 2838.4869,13148.113 2853.8514,13153.664 2869.0951,13159.388 C 2904.835,13175.898 2944.502,13181.371 2983.4986,13183.008 C 2988.7572,13183.029 2994.0148,13182.732 2999.2413,13182.16 z M 2963.1331,13151.371 C 2948.7943,13152.288 2935.7857,13147.673 2922.2638,13143.704 C 2903.0982,13141.288 2884.5218,13135.076 2867.3459,13126.423 C 2847.8108,13123.063 2832.4405,13109.703 2815.1632,13101.081 C 2799.7881,13089.502 2786.9082,13074.928 2771.148,13063.772 C 2755.8473,13052.254 2744.0971,13037.023 2734.37,13020.68 C 2724.4306,13004.502 2710.3989,12989.362 2707.8248,12969.876 C 2708.9387,12957.394 2714.2486,12945.8 2717.202,12933.744 C 2725.3893,12924.032 2732.4035,12913.803 2738.6489,12902.723 C 2746.0801,12892.198 2754.2418,12882.331 2760.8303,12871.225 C 2788.5505,12835.99 2820.3981,12804.029 2854.2738,12774.718 C 2866.1488,12763.824 2880.7824,12756.912 2894.0208,12748.04 C 2901.8055,12739.125 2913.2061,12736.24 2923.5754,12732.018 C 2935.8579,12723.032 2953.3601,12718.406 2967.4885,12725.544 C 2977.9802,12736.78 2991.0135,12745.897 3006.2356,12749.321 C 3020.4686,12753.268 3035.3068,12753.119 3049.9469,12752.976 C 3057.8459,12762.118 3066.811,12770.595 3071.7958,12781.762 C 3078.9462,12792.547 3087.2099,12802.576 3092.3712,12814.586 C 3099.7287,12828.205 3108.7268,12841.084 3112.9235,12856.144 C 3124.4972,12881.49 3135.0328,12907.702 3138.9821,12935.461 C 3143.2441,12949.829 3145.5756,12964.633 3145.5945,12979.654 C 3145.943,13004.424 3150.4642,13029.807 3143.088,13054.012 C 3138.258,13075.318 3130.6963,13096.182 3120.3053,13115.397 C 3112.9005,13125.515 3099.168,13127.535 3088.7012,13133.426 C 3072.7445,13138.791 3057.3263,13146.535 3040.3302,13148.213 C 3022.436,13150.127 3004.4981,13152.461 2986.5593,13153.452 C 2978.7427,13152.86 2970.9439,13152.038 2963.1331,13151.371 z M 3170.2358,13083.106 C 3166.361,13069.425 3175.415,13056.55 3174.6094,13042.832 C 3174.2481,13030.31 3176.3616,13018.025 3177.8452,13005.735 C 3177.2049,12982.506 3175.0791,12958.998 3168.6815,12936.594 C 3163.2047,12925.005 3168.525,12912 3160.1984,12901.171 C 3157.2857,12889.517 3152.3204,12878.785 3151.7289,12866.732 C 3144.4592,12857.633 3139.8507,12847.578 3136.835,12836.656 C 3131.7625,12824.67 3123.8128,12814.047 3119.871,12801.638 C 3114.3714,12790.569 3107.2826,12780.399 3099.9259,12770.515 C 3092.9447,12760.906 3086.7314,12750.737 3079.5372,12741.334 C 3080.7905,12734.717 3090.2095,12731.791 3089.0202,12722.754 C 3090.2869,12716.124 3095.2901,12709.71 3092.2489,12702.909 C 3090.6729,12694.022 3087.0077,12684.992 3087.5882,12676.121 C 3095.0846,12664.217 3108.1741,12657.4 3121.7552,12655.22 C 3135.0334,12647.776 3149.1622,12641.766 3164.1241,12638.532 C 3184.8967,12633.254 3206.3835,12631.542 3227.748,12632.381 C 3239.2177,12624.881 3250.1505,12634.089 3261.8851,12635.686 C 3276.7475,12640.808 3278.2119,12659.29 3288.8677,12668.959 C 3297.4362,12678.683 3296.1756,12692.637 3302.9028,12703.152 C 3309.0854,12717.021 3309.4317,12732.623 3314.9029,12746.681 C 3320.2828,12778.229 3322.6183,12810.702 3318.7663,12842.554 C 3314.0684,12854.761 3318.2428,12868.364 3312.8681,12880.346 C 3309.6019,12893.13 3308.7709,12906.564 3302.6139,12918.487 C 3300.6062,12929.63 3296.7539,12940.838 3288.4994,12949.049 C 3279.8756,12957.056 3285.3791,12971.307 3276.3559,12979.725 C 3264.082,12993.478 3255.4996,13010.053 3243.1712,13023.695 C 3228.6542,13036.106 3218.467,13053.407 3201.3813,13062.716 C 3189.4853,13067.162 3184.2467,13082.926 3171.5138,13084.322 L 3170.2358,13083.106 L 3170.2358,13083.106 z M 2683.7871,12922.885 C 2676.0655,12906.135 2675.5719,12886.872 2667.7078,12870.092 C 2664.4187,12846.984 2663.5894,12823.358 2665.1927,12800.075 C 2667.736,12776.996 2667.1824,12753.491 2673.4265,12730.915 C 2677.0083,12716.824 2680.4759,12702.592 2685.1572,12688.861 C 2694.2479,12676.567 2696.5096,12660.894 2705.0151,12648.262 C 2709.062,12637.518 2718.5023,12630.062 2721.6261,12618.823 C 2728.3186,12606.768 2740.9479,12598.982 2746.0318,12585.864 C 2756.9119,12571.568 2769.9914,12558.81 2785.3138,12549.32 C 2804.3097,12534.33 2822.8634,12517.385 2846.2294,12509.569 C 2858.9315,12511.004 2869.518,12519.496 2878.8776,12527.468 C 2898.6319,12539.038 2912.0547,12558.235 2927.3581,12574.754 C 2939.8313,12590.847 2954.6318,12605.229 2965.4328,12622.551 C 2971.07,12632.951 2979.984,12645.13 2970.0996,12656.145 C 2961.9165,12665.853 2959.8203,12678.509 2954.8039,12689.75 C 2944.9683,12698.814 2929.8879,12700.668 2918.1848,12707.525 C 2893.1685,12716.386 2872.6352,12733.629 2850.1944,12747.227 C 2820.1367,12769.156 2792.2342,12794.119 2767.7977,12822.212 C 2752.2301,12839.48 2738.1913,12858.071 2723.2311,12875.827 C 2718.2309,12886.155 2711.197,12895.08 2704.4138,12904.258 C 2698.4331,12910.743 2696.8033,12932.981 2683.7871,12922.885 z M 3008.6369,12727.781 C 2989.0489,12721.226 2973.5975,12699.419 2978.7362,12678.464 C 2984.9955,12665.65 2999.0077,12657.74 3013.2589,12659.177 C 3032.493,12657.951 3050.1231,12670.813 3060.5201,12686.104 C 3068.4169,12697.375 3064.6156,12715.424 3054.2062,12723.821 C 3041.1508,12733.943 3023.4387,12732.911 3008.6369,12727.781 z M 3046.584,12645.338 C 3034.2376,12636.62 3017.4426,12639.605 3005.4373,12630.714 C 2995.5841,12619.161 2988.455,12605.441 2978.7616,12593.674 C 2960.2839,12569.502 2940.4443,12546.13 2917.4221,12526.159 C 2908.1719,12515.133 2894.7731,12507.772 2887.4687,12495.207 C 2890.1245,12483.934 2907.9879,12486.743 2917.4633,12483.455 C 2959.6788,12474.518 3003.9428,12473.003 3045.9542,12483.923 C 3061.2905,12487.58 3076.1035,12493.219 3091.7333,12495.621 C 3106.0586,12499.787 3118.9992,12507.536 3132.9411,12512.647 C 3151.2686,12521.947 3168.5315,12533.121 3185.0879,12545.246 C 3202.2743,12555.121 3215.9334,12570.044 3229.0888,12584.638 C 3240.9915,12598.629 3214.1994,12599.402 3205.5535,12601.182 C 3170.9136,12605.48 3136.5879,12614.252 3104.6628,12628.458 C 3092.7407,12635.647 3080.7569,12642.806 3068.6564,12649.697 C 3061.1175,12653.017 3053.1875,12648.83 3046.584,12645.338 z"
         id="path2189" />
    </g>
  </g>
  <g
     inkscape:groupmode="layer"
     id="layer1"
     inkscape:label="singletrace"
     style="display:inline">
    <path
       style="opacity:1;fill:none;fill-opacity:1;fill-rule:nonzero;stroke:#000000;stroke-width:3.54330707000000000;stroke-linecap:round;stroke-linejoin:round;marker:none;marker-start:none;marker-mid:none;marker-end:none;stroke-miterlimit:4;stroke-dasharray:none;stroke-dashoffset:0;stroke-opacity:1;visibility:visible;display:inline;overflow:visible;enable-background:accumulate"
       d="M 160.54944,1579.0966 C 164.22855,1580.0027 168.07926,1581.8742 171.3621,1584.1673 L 176.88029,1568.0602 C 184.42579,1549.7805 195.37786,1535.2263 207.67774,1521.3047 C 212.32594,1516.8029 216.97415,1515.2996 221.62235,1515.5628 C 226.62704,1516.4517 227.99626,1520.1568 229.67593,1523.3927 C 230.69579,1538.8179 225.34195,1553.72 220.65294,1568.955 C 213.34478,1586.8982 203.01147,1598.623 192.16716,1609.2974 C 195.98986,1616.8989 197.63786,1624.9877 197.90906,1633.3836 C 198.20137,1643.8012 195.01038,1653.7532 190.89947,1663.5099 C 185.67472,1673.256 176.4037,1680.1815 168.82672,1684.0913 C 159.515,1687.5149 150.80101,1687.8004 142.27976,1687.0741 C 132.34452,1685.936 122.77454,1684.1079 114.61425,1679.617 C 104.23956,1674.7128 97.435956,1668.7579 91.199238,1662.466 C 85.276399,1655.7316 83.49888,1648.1458 81.877976,1640.8406 C 81.259645,1633.2373 80.992909,1624.9679 87.321594,1612.2057 C 89.866706,1605.8116 96.05872,1597.4313 104.99471,1591.3261 C 112.39887,1586.5876 120.07859,1583.8235 127.66402,1579.9914 C 127.20564,1570.459 126.18054,1561.1154 127.29647,1551.0582 C 127.77334,1540.0731 129.8165,1529.6328 132.43651,1519.4405 C 135.73692,1510.674 138.23071,1502.113 146.79016,1492.5952 C 150.64998,1488.7279 153.93119,1486.2913 158.57972,1486.3675 C 166.33883,1489.5585 167.74973,1500.0227 168.82672,1508.7024 C 169.39452,1519.7388 168.95216,1530.7751 167.93188,1541.8115 C 166.04005,1554.2399 163.19281,1566.6682 160.54944,1579.0966 z"
       id="path3275"
       sodipodi:nodetypes="ccccccccccccccccccccccccc" />
    <path
       style="opacity:1;fill:none;fill-opacity:1;fill-rule:nonzero;stroke:#000000;stroke-width:3.54330707;stroke-linecap:round;stroke-linejoin:round;marker:none;marker-start:none;marker-mid:none;marker-end:none;stroke-miterlimit:4;stroke-dasharray:none;stroke-dashoffset:0;stroke-opacity:1;visibility:visible;display:inline;overflow:visible;enable-background:accumulate"
       d="M 119.27306,1662.1589 L 128.34245,1674.3921"
       id="path3277" />
    <path
       style="opacity:1;fill:none;fill-opacity:1;fill-rule:nonzero;stroke:#000000;stroke-width:3.54330707;stroke-linecap:round;stroke-linejoin:round;marker:none;marker-start:none;marker-mid:none;marker-end:none;stroke-miterlimit:4;stroke-dasharray:none;stroke-dashoffset:0;stroke-opacity:1;visibility:visible;display:inline;overflow:visible;enable-background:accumulate"
       d="M 115.79294,1667.5373 L 131.71711,1668.5919"
       id="path3279" />
    <path
       style="opacity:1;fill:none;fill-opacity:1;fill-rule:nonzero;stroke:#000000;stroke-width:3.54330707;stroke-linecap:round;stroke-linejoin:round;marker:none;marker-start:none;marker-mid:none;marker-end:none;stroke-miterlimit:4;stroke-dasharray:none;stroke-dashoffset:0;stroke-opacity:1;visibility:visible;display:inline;overflow:visible;enable-background:accumulate"
       d="M 101.63068,1629.3147 C 102.54387,1627.5803 103.62492,1626.4986 105.13419,1626.5524 C 106.4709,1626.8852 107.67491,1628.6246 106.52324,1630.3106 C 105.32449,1632.4701 104.3061,1633.6087 102.52332,1632.9885 C 101.79031,1632.1497 101.01717,1631.5001 101.63068,1629.3147 z"
       id="path3283"
       sodipodi:nodetypes="ccccc" />
    <path
       style="opacity:1;fill:none;fill-opacity:1;fill-rule:nonzero;stroke:#000000;stroke-width:3.54330707;stroke-linecap:round;stroke-linejoin:round;marker:none;marker-start:none;marker-mid:none;marker-end:none;stroke-miterlimit:4;stroke-dasharray:none;stroke-dashoffset:0;stroke-opacity:1;visibility:visible;display:inline;overflow:visible;enable-background:accumulate"
       d="M 164.72548,1657.2024 C 163.27282,1658.1667 162.07674,1656.0203 161.98357,1654.9877 C 162.1965,1652.7927 163.32028,1651.5086 164.9364,1650.7168 C 166.53878,1650.6787 167.04102,1651.5298 167.46739,1652.6677 C 167.41131,1654.6805 166.55589,1656.7888 164.72548,1657.2024 z"
       id="path3285"
       sodipodi:nodetypes="ccccc" />
    <path
       style="opacity:1;fill:none;fill-opacity:1;fill-rule:nonzero;stroke:#000000;stroke-width:3.54330707;stroke-linecap:round;stroke-linejoin:round;marker:none;marker-start:none;marker-mid:none;marker-end:none;stroke-miterlimit:4;stroke-dasharray:none;stroke-dashoffset:0;stroke-opacity:1;visibility:visible;display:inline;overflow:visible;enable-background:accumulate"
       d="M 81.240837,1640.8225 C 78.340646,1640.1086 58.748954,1643.588 57.521527,1646.3416 C 59.976966,1662.0123 64.986945,1667.4286 65.781432,1677.9721 C 65.147755,1691.9579 62.088038,1703.1711 59.604907,1715.0432 C 58.994952,1721.8691 60.769434,1724.6415 62.937169,1726.7454 C 71.135857,1736.4825 80.70364,1741.4295 90.098781,1745.4135 C 103.04391,1749.4638 114.57901,1751.9625 125.27778,1753.2049 C 137.40785,1754.3367 149.53792,1753.3675 161.66799,1750.5717 C 163.28785,1749.5952 164.7176,1748.5808 164.94907,1747.3267 C 165.68555,1737.8577 168.97486,1721.8332 171.21296,1720.1321 C 178.50247,1716.0927 186.29199,1711.1914 190.51642,1708.8599 C 192.12798,1707.9705 192.18692,1706.6536 192.14377,1706.4984 C 192.13273,1698.8293 190.45268,1691.494 189.10979,1684.0913 C 187.76935,1680.1425 184.65735,1677.1214 181.3333,1677.1616"
       id="path3288"
       sodipodi:nodetypes="ccccccccccsccc" />
    <path
       style="opacity:1;fill:none;fill-opacity:1;fill-rule:nonzero;stroke:#000000;stroke-width:3.54330707;stroke-linecap:round;stroke-linejoin:round;marker:none;marker-start:none;marker-mid:none;marker-end:none;stroke-miterlimit:4;stroke-dasharray:none;stroke-dashoffset:0;stroke-opacity:1;visibility:visible;display:inline;overflow:visible;enable-background:accumulate"
       d="M 109.54349,1676.9326 C 111.4108,1681.3726 113.52382,1685.3579 120.65443,1688.0434 C 126.98954,1690.0418 131.98255,1686.7463 137.50727,1686.7012 L 140.4155,1686.8503"
       id="path3290"
       sodipodi:nodetypes="cccc" />
    <path
       style="opacity:1;fill:none;fill-opacity:1;fill-rule:nonzero;stroke:#000000;stroke-width:3.54330707;stroke-linecap:round;stroke-linejoin:round;marker:none;marker-start:none;marker-mid:none;marker-end:none;stroke-miterlimit:4;stroke-dasharray:none;stroke-dashoffset:0;stroke-opacity:1;visibility:visible;display:inline;overflow:visible;enable-background:accumulate"
       d="M 59.134094,1643.376 C 58.244628,1639.9078 57.284873,1636.001 57.940972,1632.3396 C 59.188983,1627.2191 62.510017,1624.6595 67.933366,1623.3167 C 72.437145,1622.2258 77.065171,1623.8362 80.759424,1625.8521"
       id="path3292"
       sodipodi:nodetypes="cccc" />
    <path
       style="opacity:1;fill:none;fill-opacity:1;fill-rule:nonzero;stroke:#000000;stroke-width:3.54330707;stroke-linecap:round;stroke-linejoin:round;marker:none;marker-start:none;marker-mid:none;marker-end:none;stroke-miterlimit:4;stroke-dasharray:none;stroke-dashoffset:0;stroke-opacity:1;visibility:visible;display:inline;overflow:visible;enable-background:accumulate"
       d="M 192.61458,1704.1506 C 203.31333,1704.4107 212.06725,1696.7129 209.46743,1686.5521 C 207.91219,1682.4064 205.69929,1678.472 201.56299,1676.7089 C 196.2188,1675.8174 190.87461,1676.9091 185.53042,1677.9019"
       id="path3294"
       sodipodi:nodetypes="cccc" />
    <path
       style="opacity:1;fill:none;fill-opacity:1;fill-rule:nonzero;stroke:#000000;stroke-width:3.54330707;stroke-linecap:round;stroke-linejoin:round;marker:none;marker-start:none;marker-mid:none;marker-end:none;stroke-miterlimit:4;stroke-dasharray:none;stroke-dashoffset:0;stroke-opacity:1;visibility:visible;display:inline;overflow:visible;enable-background:accumulate"
       d="M 101.5561,1749.4782 C 97.643796,1752.3643 94.591614,1757.2624 93.488565,1761.5531 C 92.950463,1768.8486 95.766089,1772.3381 98.07599,1774.419 C 102.40053,1776.9696 106.88787,1777.7107 115.31838,1775.6317"
       id="path3296"
       sodipodi:nodetypes="cccc" />
    <path
       style="opacity:1;fill:none;fill-opacity:1;fill-rule:nonzero;stroke:#000000;stroke-width:3.54330707;stroke-linecap:round;stroke-linejoin:round;marker:none;marker-start:none;marker-mid:none;marker-end:none;stroke-miterlimit:4;stroke-dasharray:none;stroke-dashoffset:0;stroke-opacity:1;visibility:visible;display:inline;overflow:visible;enable-background:accumulate"
       d="M 123.49138,1754.0129 C 118.98054,1755.3241 115.46354,1758.988 114.42199,1763.5041 C 113.48373,1770.1745 115.20066,1773.4101 117.32208,1776.37 C 119.36532,1778.3134 121.41301,1779.5939 124.44051,1779.8501 C 135.76251,1778.8053 145.76714,1773.2437 156.18338,1769.0934 C 158.0714,1768.0073 158.98733,1766.4353 159.18893,1764.506 L 158.92529,1751.9037"
       id="path3298"
       sodipodi:nodetypes="ccccccc" />
    <path
       style="opacity:1;fill:none;fill-opacity:1;fill-rule:nonzero;stroke:#000000;stroke-width:3.54330707;stroke-linecap:round;stroke-linejoin:round;marker:none;marker-start:none;marker-mid:none;marker-end:none;stroke-miterlimit:4;stroke-dasharray:none;stroke-dashoffset:0;stroke-opacity:1;visibility:visible;display:inline;overflow:visible;enable-background:accumulate"
       d="M 26.948281,1548.3697 C 28.291558,1539.6429 30.646277,1531.0336 37.332151,1523.4816 C 49.744932,1511.1809 62.408543,1508.5855 75.209687,1508.5449 C 90.502567,1510.3447 98.17181,1518.722 105.64338,1527.3654 C 113.92011,1539.99 114.35165,1554.2706 108.72195,1567.2925 C 101.80981,1580.7664 92.003902,1587.1118 81.326254,1590.6764 C 70.409987,1593.3895 59.006417,1592.0417 46.897946,1584.8198 C 35.80665,1577.7064 28.064774,1567.7169 26.948281,1548.3697 z"
       id="path3300"
       sodipodi:nodetypes="cccccccc" />
    <path
       style="opacity:1;fill:none;fill-opacity:1;fill-rule:nonzero;stroke:#000000;stroke-width:3.54330707;stroke-linecap:round;stroke-linejoin:round;marker:none;marker-start:none;marker-mid:none;marker-end:none;stroke-miterlimit:4;stroke-dasharray:none;stroke-dashoffset:0;stroke-opacity:1;visibility:visible;display:inline;overflow:visible;enable-background:accumulate"
       d="M 60.557414,1534.0274 C 61.99824,1531.7388 65.964728,1530.3709 68.411389,1530.7785 C 72.415953,1531.8598 73.25923,1534.2747 72.901306,1537.3147 C 71.918443,1540.1647 68.043216,1541.8584 63.983249,1542.0038 C 60.135528,1541.2735 57.318534,1538.0427 60.557414,1534.0274 z"
       id="path3302"
       sodipodi:nodetypes="ccccc" />
    <path
       style="opacity:1;fill:none;fill-opacity:1;fill-rule:nonzero;stroke:#000000;stroke-width:3.54330707;stroke-linecap:round;stroke-linejoin:round;marker:none;marker-start:none;marker-mid:none;marker-end:none;stroke-miterlimit:4;stroke-dasharray:none;stroke-dashoffset:0;stroke-opacity:1;visibility:visible;display:inline;overflow:visible;enable-background:accumulate"
       d="M 107.25085,1568.5122 C 105.3343,1561.0408 91.927892,1542.188 73.18789,1537.5074"
       id="path3304"
       sodipodi:nodetypes="cc" />
    <path
       style="opacity:1;fill:none;fill-opacity:1;fill-rule:nonzero;stroke:#000000;stroke-width:3.54330707;stroke-linecap:round;stroke-linejoin:round;marker:none;marker-start:none;marker-mid:none;marker-end:none;stroke-miterlimit:4;stroke-dasharray:none;stroke-dashoffset:0;stroke-opacity:1;visibility:visible;display:inline;overflow:visible;enable-background:accumulate"
       d="M 86.791979,1512.9358 C 79.310378,1516.6235 73.16399,1524.3532 69.602315,1530.5473"
       id="path3307"
       sodipodi:nodetypes="cc" />
    <path
       style="opacity:1;fill:none;fill-opacity:1;fill-rule:nonzero;stroke:#000000;stroke-width:3.54330707;stroke-linecap:round;stroke-linejoin:round;marker:none;marker-start:none;marker-mid:none;marker-end:none;stroke-miterlimit:4;stroke-dasharray:none;stroke-dashoffset:0;stroke-opacity:1;visibility:visible;display:inline;overflow:visible;enable-background:accumulate"
       d="M 34.484784,1527.0672 C 41.420077,1526.3829 50.683657,1526.4492 60.743839,1533.6055"
       id="path3309"
       sodipodi:nodetypes="cc" />
    <path
       style="opacity:1;fill:none;fill-opacity:1;fill-rule:nonzero;stroke:#000000;stroke-width:3.54330707;stroke-linecap:round;stroke-linejoin:round;marker:none;marker-start:none;marker-mid:none;marker-end:none;stroke-miterlimit:4;stroke-dasharray:none;stroke-dashoffset:0;stroke-opacity:1;visibility:visible;display:inline;overflow:visible;enable-background:accumulate"
       d="M 52.201736,1586.44 C 46.733399,1575.9543 47.182487,1559.1946 61.587504,1541.7258"
       id="path3311"
       sodipodi:nodetypes="cc" />
  </g>
</svg>
